# xmcd
#
# Track frame offsets: 
#        150
#        15442
#        30616
#        43382
#        60105
#        74927
#        89392
#        98796
#        114341
#        121676
#
# Disc length: 1824 seconds
#
# Revision: 1
# Processed by: cddbd v1.5.2PL0 Copyright (c) Steve Scherf et al.
# Submitted via: ExactAudioCopy v0.99pb5
#
DISCID=7c071e0a
DTITLE=Midnight - Satanic Royalty
DYEAR=2011
DGENRE=Black/Speed Metal
TTITLE0=Satanic Royalty
TTITLE1=You Can't Stop Steel
TTITLE2=Rip This Hell
TTITLE3=Necromania
TTITLE4=Black Damnation
TTITLE5=Lust Filth And Sleaze
TTITLE6=Violence On Violence
TTITLE7=Savage Dominance
TTITLE8=Holocaustic Deafening
TTITLE9=Shock Til Blood
EXTD=
EXTT0=
EXTT1=
EXTT2=
EXTT3=
EXTT4=
EXTT5=
EXTT6=
EXTT7=
EXTT8=
EXTT9=
PLAYORDER=
